# xmcd
# Copyright (C) 1995-1998 Ti Kan
#
# Track frame offsets:
#       150
#       12919
#       25155
#       35363
#       48055
#       61370
#       75077
#       90621
#       104847
#       125412
#       136153
#       150495
#
# Disc length: 2260 seconds
#
# Revision: 1
# Processed by: cddbd v1.5.2PL0 Copyright (c) Steve Scherf et al.
# Submitted via: CD-Import v1.0
#
DISCID=8608d20c
DTITLE=Arctic Monkeys - Favourite Worst Nightmare
DYEAR=2007
DGENRE=
TTITLE0=Brianstorm
TTITLE1=Teddy Picker
TTITLE2=D Is For Dangerous
TTITLE3=Balaclava
TTITLE4=Fluorescent Adolescent
TTITLE5=Only Ones Who Know
TTITLE6=Do Me A Favour
TTITLE7=This House Is A Circus
TTITLE8=If You Were There, Beware
TTITLE9=The Bad Thing
TTITLE10=Old Yellow Bricks
TTITLE11=Sos
EXTD=
EXTT0=
EXTT1=
EXTT2=
EXTT3=
EXTT4=
EXTT5=
EXTT6=
EXTT7=
EXTT8=
EXTT9=
EXTT10=
EXTT11=
PLAYORDER=
